<?xml version="1.0" encoding="UTF-8" standalone="no"?>
<!-- Created with Inkscape (http://www.inkscape.org/) -->

<svg
   xmlns:dc="http://purl.org/dc/elements/1.1/"
   xmlns:cc="http://creativecommons.org/ns#"
   xmlns:rdf="http://www.w3.org/1999/02/22-rdf-syntax-ns#"
   xmlns:svg="http://www.w3.org/2000/svg"
   xmlns="http://www.w3.org/2000/svg"
   version="1.1"
   width="62.132442"
   height="132.78215"
   id="svg3136"
   xml:space="preserve"><metadata
     id="metadata3142"><rdf:RDF><cc:Work
         rdf:about=""><dc:format>image/svg+xml</dc:format><dc:type
           rdf:resource="http://purl.org/dc/dcmitype/StillImage" /><dc:title></dc:title></cc:Work></rdf:RDF></metadata><defs
     id="defs3140"><clipPath
       id="clipPath3152"><path
         d="m 0,0 1393.76,0 0,3707 L 0,3707 0,0 z"
         id="path3154" /></clipPath><clipPath
       id="clipPath3190"><path
         d="m 15.1602,1601.83 182.0038,0 0,195 -182.0038,0 0,-195 z"
         id="path3192" /></clipPath><clipPath
       id="clipPath3200"><path
         d="m 0,0 0,3707 1394,0 L 1394,0 0,0 z"
         id="path3202" /></clipPath><clipPath
       id="clipPath3210"><path
         d="m 302.938,1601.83 182.003,0 0,195 -182.003,0 0,-195 z"
         id="path3212" /></clipPath><clipPath
       id="clipPath3220"><path
         d="m 0,0 0,3707 1394,0 L 1394,0 0,0 z"
         id="path3222" /></clipPath></defs><g
     transform="matrix(1.25,0,0,-1.25,-0.65594238,302.25469)"
     id="g3144"><g
       transform="scale(0.1,0.1)"
       id="g3146"><g
         id="g3216"><g
           clip-path="url(#clipPath3220)"
           id="g3218"><path
             d="m 344.58481,2095.7805 c 0,67.2248 0,77.5909 134.35881,101.9902 l 23.36346,4.2493 -42.94642,216.0175 -22.00249,-3.2437 C 135.97707,2370.1613 105.95994,2296.4416 105.95994,2126.705 l 0,-128.1513 -100.712401,0 0,-201.5185 100.712401,0 0,-441.2549 238.62487,0 0,441.2549 148.19543,0 0,201.5185 -148.19543,0 0,97.2268"
             id="path3260"
             style="fill:#231f20;fill-opacity:1;fill-rule:nonzero;stroke:none" /></g></g></g></g></svg>