<?xml version="1.0" encoding="UTF-8" standalone="no"?>
<!-- Created with Inkscape (http://www.inkscape.org/) -->

<svg
   xmlns:dc="http://purl.org/dc/elements/1.1/"
   xmlns:cc="http://creativecommons.org/ns#"
   xmlns:rdf="http://www.w3.org/1999/02/22-rdf-syntax-ns#"
   xmlns:svg="http://www.w3.org/2000/svg"
   xmlns="http://www.w3.org/2000/svg"
   version="1.1"
   width="173.97281"
   height="147.98074"
   id="svg3136"
   xml:space="preserve"><metadata
     id="metadata3142"><rdf:RDF><cc:Work
         rdf:about=""><dc:format>image/svg+xml</dc:format><dc:type
           rdf:resource="http://purl.org/dc/dcmitype/StillImage" /><dc:title></dc:title></cc:Work></rdf:RDF></metadata><defs
     id="defs3140"><clipPath
       id="clipPath3152"><path
         d="m 0,0 1393.76,0 0,3707 L 0,3707 0,0 z"
         id="path3154" /></clipPath><clipPath
       id="clipPath3190"><path
         d="m 15.1602,1601.83 182.0038,0 0,195 -182.0038,0 0,-195 z"
         id="path3192" /></clipPath><clipPath
       id="clipPath3200"><path
         d="m 0,0 0,3707 1394,0 L 1394,0 0,0 z"
         id="path3202" /></clipPath><clipPath
       id="clipPath3210"><path
         d="m 302.938,1601.83 182.003,0 0,195 -182.003,0 0,-195 z"
         id="path3212" /></clipPath><clipPath
       id="clipPath3220"><path
         d="m 0,0 0,3707 1394,0 L 1394,0 0,0 z"
         id="path3222" /></clipPath></defs><g
     transform="matrix(1.25,0,0,-1.25,0.20174587,157.25232)"
     id="g3144"><g
       transform="scale(0.1,0.1)"
       id="g3146"><g
         id="g3216"><g
           clip-path="url(#clipPath3220)"
           id="g3218"><path
             d="m 1163.2833,1031.0429 0,226.9757 -113.435,0 0,-226.9757 -227.11904,0 0,-113.42746 227.11904,0 0,-227.06846 113.435,0 0,227.06846 226.8852,0 0,113.42746 -226.8852,0"
             id="path3256"
             style="fill:#231f20;fill-opacity:1;fill-rule:nonzero;stroke:none" /><path
             d="m 399.52129,522.64324 3.20715,-22.34365 c 26.73631,-0.29506 52.79346,-4.30438 77.46965,-11.99776 l 24.32152,-16.59568 c 56.18173,-38.32054 93.3243,-63.61251 104.02486,-105.70617 2.47517,-10.05234 3.71275,-20.30993 3.71275,-30.71544 0,-106.03065 -78.2922,-159.82701 -232.63536,-159.82701 -117.35151,0 -209.23448,72.51404 -209.23448,164.95543 0,85.10192 107.03581,159.88663 229.07354,159.88663 l 0,22.34365 0.0604,0 z m -45.0133,657.05296 3.2147,-22.2538 c 79.90709,-2.5054 156.2599,-90.7888 170.1978,-197.03226 7.84054,-59.5398 -5.53894,-115.69884 -35.75407,-150.18439 -19.6353,-22.40326 -44.98311,-34.25311 -76.2849,-34.25311 -0.0906,0 -0.1811,0 -0.21129,0 -79.55996,2.41705 -155.87505,92.2905 -170.14498,200.2092 -7.81035,59.36616 4.77677,113.05006 34.63722,146.91756 19.63531,22.4878 45.3076,34.4033 74.28515,34.4033 l 0,22.1331 c 0.0302,0 0.0302,0.06 0.0604,0.06 z M 615.5021,595.98284 c -41.00625,29.15337 -82.83503,74.96129 -82.83503,90.73216 0,26.08734 2.24123,38.4677 58.68707,82.53696 69.50838,54.41515 107.80553,125.80778 107.80553,201.03628 0,72.98716 -23.67254,137.27346 -63.64495,180.13616 l 46.48481,0 140.99384,101.9345 -420.67243,0 c -174.718,0 -327.936767,-130.7008 -327.936767,-279.88986 0,-157.64536 123.833727,-276.79288 288.319027,-277.47129 -4.24853,-14.32577 -6.36902,-28.29838 -6.36902,-42.03479 0,-26.11677 7.45568,-50.78919 22.72926,-74.6368 l -13.2361,-0.14716 c -199.21307,0 -367.441307,-126.07571 -367.441307,-275.4376 0,-132.41304 160.651807,-228.568693 382.028187,-228.568693 238.50632,0 367.20737,141.875273 367.20737,275.437613 0,111.54241 -35.82198,178.30925 -132.11949,246.37252"
             id="path3258"
             style="fill:#231f20;fill-opacity:1;fill-rule:nonzero;stroke:none" /></g></g></g></g></svg>