<?xml version="1.0" encoding="utf-8"?>
<!-- Generator: Adobe Illustrator 15.1.0, SVG Export Plug-In . SVG Version: 6.00 Build 0)  -->
<svg version="1.2" baseProfile="tiny"
	 id="svg3136" xmlns:dc="http://purl.org/dc/elements/1.1/" xmlns:svg="http://www.w3.org/2000/svg" xmlns:rdf="http://www.w3.org/1999/02/22-rdf-syntax-ns#" xmlns:cc="http://creativecommons.org/ns#"
	 xmlns="http://www.w3.org/2000/svg" xmlns:xlink="http://www.w3.org/1999/xlink" x="0px" y="0px" width="173.973px"
	 height="147.98px" viewBox="0 0 173.973 147.98" overflow="inherit" xml:space="preserve">
<g id="g3144" transform="matrix(1.25,0,0,-1.25,0.20174587,157.25232)">
	<g id="g3146" transform="scale(0.1,0.1)">
		<g id="g3216">
			<g>
				<path fill="#231F20" d="M237.327,1258.018c-81.648,0-134.941-54.969-134.941-126.637c0-69.973,51.656-126.621,131.609-126.621
					c84.965,0,136.613,56.648,136.613,126.621C368.956,1203.05,318.96,1258.018,237.327,1258.018z"/>
				<rect x="219.858" y="446.482" fill="#231F20" width="31.654" height="101.847"/>
				<path fill="#231F20" d="M995.409,923.135c-136.641,0-218.273-78.281-251.664-131.664H738.8l-11.656,113.32H507.229
					c3.332-73.328,6.594-158.289,6.594-259.93V90.018h253.336v469.898c0,23.289,1.602,46.656,8.312,63.242
					c18.328,46.707,59.992,95,129.906,95c91.609,0,128.281-71.602,128.281-176.562V90.018h253.344v481.562
					C1287.003,811.479,1162.011,923.135,995.409,923.135z"/>
			</g>
		</g>
	</g>
</g>
</svg>
