<?xml version="1.0" encoding="utf-8"?> <!-- Generator: IcoMoon.io --> <!DOCTYPE svg PUBLIC "-//W3C//DTD SVG 1.1//EN" "http://www.w3.org/Graphics/SVG/1.1/DTD/svg11.dtd"> <svg width="512" height="512" viewBox="0 0 512 512" xmlns="http://www.w3.org/2000/svg" xmlns:xlink="http://www.w3.org/1999/xlink"><path d="M 256.018,259.156c-71.447,0.00 -129.359-57.899 -129.358-129.334c0.00-71.436 57.911-129.322 129.358-129.322c 71.423,0.00 129.31,57.887 129.311,129.322c0.00,71.435 -57.887,129.334 -129.311,129.334zM 256.018,66.196 c-35.169,0.00 -63.638,28.481 -63.638,63.625s 28.47,63.625 63.638,63.625c 35.132,0.00 63.612-28.481 63.612-63.625s-28.48-63.625 -63.612-63.625zM 405.075,274.938c 12.726,25.561 -1.634,37.925 -34.098,58.762 c-27.495,17.651 -65.172,24.327 -89.785,26.872l 20.584,20.598l 76.20,76.20c 11.591,11.589 11.591,30.352 0.00,41.943l-3.479,3.506c-11.589,11.577 -30.354,11.577 -41.943,0.00c-19.374-19.375 -47.281-47.295 -76.225-76.214 l-76.201,76.214c-11.589,11.577 -30.352,11.577 -41.943,0.00l-3.479-3.506c-11.59-11.577 -11.59-30.355 0.00-41.932c 19.375-19.375 47.283-47.308 76.201-76.213l 20.535-20.535c-24.591-2.482 -62.69-9.132 -90.411-26.935 c-32.462-20.835 -46.847-33.198 -34.097-58.761c 7.299-14.672 27.509-26.872 54.382-5.701c 36.341,28.619 94.701,28.619 94.701,28.619s 58.323,0.00 94.664-28.619c 26.887-21.171 47.109-8.971 54.395,5.701z" ></path></svg>