<?xml version="1.0" encoding="UTF-8" standalone="no"?>
<!-- Created with Inkscape (http://www.inkscape.org/) -->

<svg
   xmlns:dc="http://purl.org/dc/elements/1.1/"
   xmlns:cc="http://creativecommons.org/ns#"
   xmlns:rdf="http://www.w3.org/1999/02/22-rdf-syntax-ns#"
   xmlns:svg="http://www.w3.org/2000/svg"
   xmlns="http://www.w3.org/2000/svg"
   version="1.1"
   width="174.22"
   height="141.70763"
   id="svg3136"
   xml:space="preserve"><metadata
     id="metadata3142"><rdf:RDF><cc:Work
         rdf:about=""><dc:format>image/svg+xml</dc:format><dc:type
           rdf:resource="http://purl.org/dc/dcmitype/StillImage" /><dc:title></dc:title></cc:Work></rdf:RDF></metadata><defs
     id="defs3140"><clipPath
       id="clipPath3152"><path
         d="m 0,0 1393.76,0 0,3707 L 0,3707 0,0 z"
         id="path3154" /></clipPath><clipPath
       id="clipPath3190"><path
         d="m 15.1602,1601.83 182.0038,0 0,195 -182.0038,0 0,-195 z"
         id="path3192" /></clipPath><clipPath
       id="clipPath3200"><path
         d="m 0,0 0,3707 1394,0 L 1394,0 0,0 z"
         id="path3202" /></clipPath><clipPath
       id="clipPath3210"><path
         d="m 302.938,1601.83 182.003,0 0,195 -182.003,0 0,-195 z"
         id="path3212" /></clipPath><clipPath
       id="clipPath3220"><path
         d="m 0,0 0,3707 1394,0 L 1394,0 0,0 z"
         id="path3222" /></clipPath></defs><g
     transform="matrix(1.25,0,0,-1.25,0,463.30475)"
     id="g3144"><g
       transform="scale(0.1,0.1)"
       id="g3146"><g
         id="g3148"><g
           clip-path="url(#clipPath3152)"
           id="g3150"><path
             d="m 1394.8247,3572.2072 c -51.3314,-22.7023 -106.5108,-38.0756 -164.3394,-45.0563 58.9987,35.5036 104.4706,91.5823 125.8094,158.4027 -55.3245,-32.7866 -116.5177,-56.7748 -181.8107,-69.4213 -52.124,55.5949 -126.4863,90.3057 -208.78652,90.3057 -158.14169,0 -286.35845,-128.1104 -286.35845,-286.0976 0,-22.5473 2.60064,-44.3794 7.51254,-65.3798 -237.9087,11.9699 -448.76435,125.9933 -589.985782,299.1696 -24.616561,-42.378 -38.742557,-91.4757 -38.742557,-143.9768 0,-99.298 50.528749,-186.9159 127.346779,-238.1311 -46.903,1.431 -91.02139,14.2033 -129.580262,35.7645 -0.154712,-1.2859 -0.154712,-2.5236 -0.154712,-3.5869 0,-138.7599 98.698374,-254.3688 229.670944,-280.6937 -24.13317,-6.5719 -49.3202,-10.0472 -75.45476,-10.0472 -18.43825,0 -36.25772,1.7377 -53.89346,5.2125 36.40273,-113.6829 142.19795,-196.5467 267.3983,-198.7755 -97.89588,-76.8585 -221.32683,-122.7097 -355.403064,-122.7097 -23.117933,0 -45.887769,1.3595 -68.31922248,4.0793 C 126.40378,2620.025 276.87815,2572.777 438.51994,2572.777 c 526.42348,0 814.29046,436.0372 814.29046,814.1772 0,12.5792 -0.3384,24.8487 -0.7928,37.1281 55.9336,40.3283 104.4318,90.7891 142.8071,148.1249"
             id="path3162"
             style="fill:#231f20;fill-opacity:1;fill-rule:nonzero;stroke:none" /></g></g></g></g></svg>