<?xml version="1.0" encoding="utf-8"?>
<!-- Generator: Adobe Illustrator 16.0.0, SVG Export Plug-In . SVG Version: 6.00 Build 0)  -->
<!DOCTYPE svg PUBLIC "-//W3C//DTD SVG 1.1//EN" "http://www.w3.org/Graphics/SVG/1.1/DTD/svg11.dtd">
<svg version="1.1" id="Layer_1" xmlns="http://www.w3.org/2000/svg" xmlns:xlink="http://www.w3.org/1999/xlink" x="0px" y="0px"
	 width="414.999px" height="414.996px" viewBox="0 0 414.999 414.996" enable-background="new 0 0 414.999 414.996"
	 xml:space="preserve">
<path fill-rule="evenodd" clip-rule="evenodd" d="M124.046,94.794h98.5c32.411,0,60.002,15.878,59.973,47.985
	c-0.025,26.809-9.732,37.237-29.675,49.029c1.704,1.405,13.132,4.814,16.97,6.705c6.145,3.028,9.76,6.09,13.803,10.2
	c11.314,11.504,13.424,22.021,13.424,40.066c0,41.868-40.496,62.917-79.494,62.917h-93.918L124.046,94.794L124.046,94.794z
	 M177.57,151.78l-0.007,28.167c25.371,0,49.211,3.342,49.211-24.167c0-25.467-26.97-21.271-49.229-21.271L177.57,151.78
	L177.57,151.78z M177.556,271.77c27.8,0,62.145,4.58,62.748-26.982c0.631-32.922-35.281-26.98-62.732-26.98L177.556,271.77z"/>
</svg>
